<?xml version="1.0" standalone="no"?>
<!DOCTYPE svg PUBLIC "-//W3C//DTD SVG 20010904//EN"
 "http://www.w3.org/TR/2001/REC-SVG-20010904/DTD/svg10.dtd">
<svg version="1.0" xmlns="http://www.w3.org/2000/svg"
 width="164.000000pt" height="70.000000pt" viewBox="0 0 164.000000 70.000000"
 preserveAspectRatio="xMidYMid meet">

<g transform="translate(0.000000,70.000000) scale(0.100000,-0.100000)"
fill="#000000" stroke="none">
<path d="M945 531 c-3 -5 -20 -7 -38 -4 -42 6 -73 -18 -91 -72 l-14 -39 -15
36 c-59 142 -219 42 -177 -111 15 -57 41 -81 88 -81 44 0 75 26 93 79 l12 33
13 -38 c15 -43 46 -74 76 -74 28 0 76 27 88 49 17 32 -7 35 -41 7 -36 -31 -50
-32 -72 -8 -43 47 -42 136 2 176 25 23 59 13 71 -20 16 -40 30 -27 30 26 0 46
-11 63 -25 41z m-215 -51 c24 -13 43 -73 36 -113 -9 -50 -33 -77 -66 -77 -49
0 -79 70 -60 140 14 53 48 72 90 50z"/>
<path d="M469 516 c-33 -16 -37 -61 -9 -91 12 -12 39 -30 60 -40 41 -18 53
-35 44 -59 -10 -25 -36 -27 -77 -7 -22 11 -43 18 -47 16 -12 -8 2 -65 16 -65
8 0 14 4 14 9 0 5 15 5 34 -1 28 -9 40 -8 60 6 58 37 39 101 -42 139 -49 23
-68 59 -37 70 22 9 65 -10 65 -29 0 -8 6 -14 13 -11 6 2 12 19 12 37 0 32 -2
34 -41 36 -23 1 -52 -3 -65 -10z"/>
<path d="M1350 515 c0 -8 9 -15 20 -15 19 0 20 -7 20 -104 0 -99 -1 -104 -22
-110 -16 -4 -20 -8 -12 -16 7 -7 43 -10 90 -8 l79 3 0 44 c0 27 -5 46 -12 49
-9 2 -13 -8 -13 -32 0 -35 -1 -36 -40 -36 l-40 0 0 104 c0 97 1 104 21 109 37
10 10 27 -42 27 -37 0 -49 -4 -49 -15z"/>
<path d="M1000 505 c0 -8 7 -15 15 -15 12 0 15 -18 15 -100 0 -82 -3 -100 -15
-100 -8 0 -15 -7 -15 -15 0 -11 12 -15 44 -15 48 0 67 13 40 28 -13 7 -18 30
-22 106 -5 93 -4 96 17 96 12 0 21 6 21 15 0 11 -12 15 -50 15 -38 0 -50 -4
-50 -15z"/>
<path d="M1180 506 c0 -8 4 -16 9 -18 12 -4 -48 -191 -65 -201 -21 -12 -7 -27
25 -27 33 0 44 9 32 24 -5 6 -7 23 -4 39 5 24 9 27 48 27 39 0 43 -3 48 -27 3
-18 0 -31 -9 -36 -23 -13 -6 -27 32 -27 23 0 34 5 34 14 0 8 -4 16 -10 18 -13
4 -71 198 -59 198 5 0 9 7 9 15 0 11 -12 15 -45 15 -32 0 -45 -4 -45 -14z m65
-93 c6 -31 5 -33 -19 -33 -30 0 -30 1 -15 54 12 43 21 37 34 -21z"/>
<path d="M330 470 c0 -20 -5 -30 -15 -30 -8 0 -15 -7 -15 -15 0 -8 7 -15 15
-15 12 0 15 -13 15 -59 0 -63 15 -91 49 -91 20 0 41 19 41 37 0 16 -27 17 -32
1 -10 -29 -28 8 -28 57 0 48 2 54 23 57 12 2 22 8 22 13 0 6 -10 11 -22 13
-18 3 -23 10 -23 33 0 19 -5 29 -15 29 -10 0 -15 -10 -15 -30z"/>
<path d="M10 425 c0 -8 7 -15 15 -15 22 0 21 -105 -1 -114 -25 -10 -6 -26 31
-26 37 0 56 16 31 26 -26 10 -21 79 6 98 34 24 38 20 38 -39 0 -30 -4 -55 -10
-55 -5 0 -10 -7 -10 -15 0 -11 11 -15 40 -15 29 0 40 4 40 15 0 8 -7 15 -15
15 -11 0 -15 12 -15 45 0 35 5 47 21 55 35 19 49 6 49 -50 0 -38 -4 -50 -15
-50 -8 0 -15 -7 -15 -15 0 -11 11 -15 40 -15 29 0 40 4 40 15 0 8 -4 15 -10
15 -5 0 -10 19 -10 43 0 23 -3 52 -6 65 -8 27 -46 39 -79 24 -16 -7 -26 -7
-34 1 -8 8 -19 8 -41 0 -17 -6 -30 -7 -30 -2 0 5 -13 9 -30 9 -20 0 -30 -5
-30 -15z"/>
</g>
</svg>
